<svg xmlns="http://www.w3.org/2000/svg" viewBox="0 0 320 220" role="img" aria-label="Candle Crypt">
  <rect width="320" height="220" rx="28" fill="#372544"/>
  <path d="M35 170c42-30 82-29 119 2 35 30 78 27 130-8v56H35v-50Z" fill="#4c3560"/>
  <path d="M70 190V96c0-18 15-33 33-33h114c18 0 33 15 33 33v94" fill="#76607d" stroke="#160f21" stroke-width="8"/>
  <path d="M103 190v-63c0-31 26-57 57-57s57 26 57 57v63" fill="#2b2140" stroke="#160f21" stroke-width="7"/>
  <g stroke="#160f21" stroke-width="6">
    <path d="M83 74h38M199 74h38M72 108h37M211 108h37"/>
  </g>
  <path d="M57 158h28v50H57zM235 158h28v50h-28z" fill="#fff0c8" stroke="#160f21" stroke-width="6"/>
  <path d="M71 119c13 13 14 24 0 35-12-10-11-22 0-35ZM249 119c13 13 14 24 0 35-12-10-11-22 0-35Z" fill="#ff8a3d"/>
  <path d="M72 132c6 7 6 12 0 18-6-6-6-12 0-18ZM250 132c6 7 6 12 0 18-6-6-6-12 0-18Z" fill="#ffe08a"/>
</svg>
