<svg xmlns="http://www.w3.org/2000/svg" viewBox="0 0 320 220" role="img" aria-label="Ink Well Crossing">
  <rect width="320" height="220" rx="28" fill="#ffdca5"/>
  <path d="M46 160c36-31 77-31 123 0 42 29 80 25 115-13v73H46v-60Z" fill="#7b5bc5"/>
  <path d="M84 62h152l-18 93H102L84 62Z" fill="#fff0c8" stroke="#2b2140" stroke-width="8"/>
  <path d="M114 88h40M111 112h58M188 88h28M184 112h40" stroke="#8a6c3c" stroke-width="6" stroke-linecap="round"/>
  <path d="M154 45c0-15 12-27 27-27s27 12 27 27v64h-54V45Z" fill="#2b2140"/>
  <path d="M166 49c0-8 7-15 15-15s15 7 15 15v47h-30V49Z" fill="#3d2c5a"/>
  <path d="M152 98c-41 15-63 37-66 68 34 5 63-12 87-50" fill="#66d9ff" stroke="#2b2140" stroke-width="7"/>
  <circle cx="185" cy="122" r="9" fill="#66d9ff"/>
  <circle cx="205" cy="137" r="6" fill="#66d9ff"/>
</svg>
